<svg width="24" height="26" viewBox="0 0 24 26" fill="none" xmlns="http://www.w3.org/2000/svg">
<path d="M0 13.4796C0 10.4506 0 7.42011 0 4.39117C0 3.56178 0.543941 3.00515 1.37492 2.99722C2.12026 2.99088 2.8656 2.99088 3.61094 2.99881C3.78063 3.0004 3.83772 2.96392 3.84565 2.77838C3.87102 2.17735 4.36104 1.72221 4.97159 1.71746C5.66935 1.7127 6.36553 1.7127 7.0633 1.71746C7.22347 1.71746 7.31069 1.69526 7.36778 1.5113C7.66275 0.582001 8.46201 0 9.41192 0C10.3301 0 11.15 0.591516 11.4418 1.49861C11.5036 1.69208 11.5956 1.72222 11.7701 1.72063C12.4282 1.7127 13.0863 1.71587 13.746 1.71746C14.4422 1.71746 14.8862 2.09964 14.9528 2.78314C14.9703 2.96868 15.0385 3.0004 15.2034 2.99881C15.9297 2.99088 16.656 2.99247 17.3823 2.99564C18.2561 2.99881 18.8207 3.55385 18.8238 4.42765C18.8302 6.19902 18.827 7.9704 18.8238 9.74177C18.8238 10.0907 18.6668 10.2794 18.3925 10.2825C18.115 10.2857 17.9627 10.1033 17.9627 9.74812C17.9627 8.00529 17.9627 6.26404 17.9627 4.52121C17.9627 4.01216 17.8153 3.86626 17.3062 3.86626C16.6084 3.86626 15.9123 3.8726 15.2145 3.8615C15.0289 3.85833 14.9528 3.90591 14.9639 4.10097C14.9782 4.35153 14.9719 4.60367 14.9655 4.85582C14.9497 5.52663 14.4707 6.00872 13.8031 6.00872C10.8693 6.01189 7.93551 6.01189 5.00172 6.00872C4.33408 6.00872 3.85199 5.51711 3.84247 4.85106C3.8393 4.5894 3.83613 4.32774 3.84406 4.06766C3.84882 3.92652 3.81869 3.85992 3.65535 3.8615C2.89097 3.86943 2.12502 3.85992 1.36064 3.86785C1.01176 3.87102 0.864279 4.04863 0.864279 4.43716C0.862693 6.35285 0.864279 8.27012 0.864279 10.1858C0.864279 14.2614 0.864279 18.3354 0.864279 22.411C0.864279 23.0215 0.983217 23.1389 1.59218 23.1389C4.25479 23.1389 6.9174 23.1389 9.58002 23.1389C9.66724 23.1389 9.75446 23.1357 9.84168 23.1421C10.0907 23.1595 10.235 23.2927 10.2556 23.5433C10.2746 23.7812 10.1176 23.954 9.85754 23.9889C9.7719 24 9.6831 23.9968 9.59588 23.9968C6.90472 23.9968 4.21197 23.9968 1.52081 23.9968C0.504295 23.9968 0 23.4925 0 22.4808C0 19.4804 0 16.48 0 13.4796ZM9.41192 5.14286C10.8439 5.14286 12.2759 5.14286 13.7079 5.14286C14.0172 5.14286 14.1107 5.05405 14.1123 4.75116C14.1171 4.16123 14.1155 3.5713 14.1123 2.98137C14.1107 2.6642 14.0299 2.58491 13.7175 2.58491C13.0118 2.58332 12.3045 2.58491 11.5988 2.58491C11.0818 2.58491 10.762 2.33276 10.6394 1.82847C10.4982 1.24964 9.90987 0.815118 9.3247 0.857936C8.70464 0.903925 8.18924 1.40188 8.13532 2.01084C8.09409 2.47073 7.97516 2.58332 7.52002 2.58491C6.71759 2.58649 5.91357 2.58491 5.11114 2.58491C4.76543 2.58491 4.71151 2.642 4.70993 2.99405C4.70993 3.56495 4.70993 4.13585 4.70993 4.70517C4.70993 5.08577 4.76701 5.14286 5.14603 5.14286C6.56852 5.14286 7.99101 5.14286 9.41192 5.14286Z" fill="url(#paint0_linear_2248_5094)"/>
<path d="M9.41961 9.43231C11.2005 9.43231 12.983 9.43231 14.7639 9.43231C14.8796 9.43231 14.9986 9.4339 15.108 9.46244C15.3031 9.51319 15.3903 9.67336 15.3919 9.85731C15.3934 10.0429 15.3015 10.1999 15.108 10.249C14.9891 10.2807 14.859 10.2871 14.7353 10.2871C11.1831 10.2887 7.62921 10.2887 4.07694 10.2871C3.97069 10.2871 3.86285 10.2871 3.75977 10.2665C3.5219 10.2205 3.41882 10.0571 3.42834 9.8256C3.43785 9.60199 3.56947 9.47037 3.78832 9.43707C3.88347 9.4228 3.98179 9.42914 4.07853 9.42914C5.85942 9.42914 7.64189 9.42914 9.42278 9.42914L9.41961 9.43231Z" fill="url(#paint1_linear_2248_5094)"/>
<path d="M5.77599 14.1437C6.38495 14.1437 6.99391 14.1421 7.60287 14.1437C7.93114 14.1453 8.11668 14.2991 8.1262 14.5608C8.13571 14.8145 7.93907 15.0017 7.6219 15.0032C6.38495 15.0096 5.14642 15.0096 3.90947 15.0032C3.58754 15.0017 3.41469 14.8256 3.4242 14.5513C3.43372 14.2896 3.59864 14.1469 3.91898 14.1437C4.53746 14.139 5.15593 14.1437 5.77599 14.1437Z" fill="url(#paint2_linear_2248_5094)"/>
<path d="M5.54499 19.7182C5.01215 19.7182 4.4809 19.7182 3.94806 19.7182C3.78948 19.7182 3.63565 19.6976 3.52623 19.566C3.41205 19.428 3.38985 19.2678 3.45962 19.1029C3.53098 18.9316 3.67688 18.8539 3.85132 18.8523C4.98361 18.8476 6.11589 18.846 7.24818 18.8523C7.52411 18.8539 7.69063 19.0395 7.68587 19.29C7.68111 19.5358 7.51301 19.7071 7.22756 19.7119C6.66618 19.7214 6.10479 19.715 5.54341 19.715L5.54499 19.7182Z" fill="url(#paint3_linear_2248_5094)"/>
<g clip-path="url(#clip0_2248_5094)">
<path d="M9.55665 18.1047C9.54948 14.3904 12.5837 11.349 16.2998 11.3418C20.068 11.3364 23.131 14.3904 23.1023 18.1909C23.0718 21.9752 19.9567 24.9807 16.1796 24.9215C12.5514 24.8641 9.49564 21.7957 9.55845 18.1029L9.55665 18.1047Z" fill="#6DA7FF"/>
<g clip-path="url(#clip1_2248_5094)">
<path d="M14.8376 17.2274H16.6561M14.8376 18.5003H17.7471M14.8376 20.6825V21.5319C14.8376 21.7257 14.8376 21.8226 14.8773 21.8723C14.9119 21.9156 14.9643 21.9408 15.0196 21.9407C15.0833 21.9407 15.159 21.8801 15.3103 21.7591L16.1779 21.065C16.3551 20.9232 16.4437 20.8523 16.5424 20.8019C16.6299 20.7572 16.7231 20.7245 16.8194 20.7047C16.928 20.6825 17.0415 20.6825 17.2684 20.6825H18.1836C18.7946 20.6825 19.1002 20.6825 19.3336 20.5635C19.5389 20.4589 19.7058 20.292 19.8104 20.0867C19.9293 19.8533 19.9293 19.5478 19.9293 18.9367V16.9728C19.9293 16.3617 19.9293 16.0562 19.8104 15.8228C19.7058 15.6175 19.5389 15.4506 19.3336 15.346C19.1002 15.2271 18.7946 15.2271 18.1836 15.2271H15.1285C14.5175 15.2271 14.2119 15.2271 13.9786 15.346C13.7733 15.4506 13.6063 15.6175 13.5017 15.8228C13.3828 16.0562 13.3828 16.3617 13.3828 16.9728V19.2277C13.3828 19.5659 13.3828 19.735 13.42 19.8738C13.5209 20.2503 13.815 20.5444 14.1915 20.6453C14.3303 20.6825 14.4994 20.6825 14.8376 20.6825Z" stroke="white" stroke-width="0.7" stroke-linecap="round" stroke-linejoin="round"/>
</g>
</g>
<defs>
<linearGradient id="paint0_linear_2248_5094" x1="2.70707e-09" y1="11.997" x2="28.958" y2="12.2423" gradientUnits="userSpaceOnUse">
<stop stop-color="#384DF6"/>
<stop offset="1" stop-color="#987EE6"/>
</linearGradient>
<linearGradient id="paint1_linear_2248_5094" x1="3.42773" y1="9.85794" x2="21.4254" y2="12.5589" gradientUnits="userSpaceOnUse">
<stop stop-color="#384DF6"/>
<stop offset="1" stop-color="#987EE6"/>
</linearGradient>
<linearGradient id="paint2_linear_2248_5094" x1="3.42383" y1="14.5747" x2="10.6327" y2="14.9971" gradientUnits="userSpaceOnUse">
<stop stop-color="#384DF6"/>
<stop offset="1" stop-color="#987EE6"/>
</linearGradient>
<linearGradient id="paint3_linear_2248_5094" x1="3.41992" y1="19.2831" x2="9.96354" y2="19.6294" gradientUnits="userSpaceOnUse">
<stop stop-color="#384DF6"/>
<stop offset="1" stop-color="#987EE6"/>
</linearGradient>
<clipPath id="clip0_2248_5094">
<rect width="14" height="14" fill="white" transform="translate(9.45312 11.1343)"/>
</clipPath>
<clipPath id="clip1_2248_5094">
<rect width="8.72865" height="8.72865" fill="white" transform="translate(12.291 14.1357)"/>
</clipPath>
</defs>
</svg>
